<?xml version="1.0" encoding="utf-8"?>
<!-- Generator: Adobe Illustrator 26.0.1, SVG Export Plug-In . SVG Version: 6.00 Build 0)  -->
<svg version="1.1"
	 id="svg10" xmlns:cc="http://creativecommons.org/ns#" xmlns:dc="http://purl.org/dc/elements/1.1/" xmlns:rdf="http://www.w3.org/1999/02/22-rdf-syntax-ns#" xmlns:svg="http://www.w3.org/2000/svg"
	 xmlns="http://www.w3.org/2000/svg" xmlns:xlink="http://www.w3.org/1999/xlink" x="0px" y="0px" viewBox="0 0 300 260"
	 style="enable-background:new 0 0 300 260;" xml:space="preserve">
<style type="text/css">
	.st0{fill:#FF6633;}
</style>
<path class="st0" d="M111.1,71c5.7,0,11,0.4,15.8,1.7c4.8,0.9,8.8,2.7,12.4,4.8c3.5,2.2,6.1,5.3,7.9,9.3c1.7,4,2.7,8.8,2.7,14.1
	c0,6.1-1.3,11.4-4.4,15.4c-2.7,4-7,7.5-12.4,10.1c7.5,2.2,13.2,6.1,16.7,11.4c3.5,5.3,5.7,11.9,5.7,19.4c0,6.1-1.3,11.4-3.5,15.8
	c-2.2,4.4-5.7,8.4-9.7,11c-4,2.7-8.8,4.8-14.1,6.1c-5.3,1.3-10.6,2.2-15.8,2.2l-59,0.1V71H111.1z M107.5,120.3
	c4.8,0,8.8-1.3,11.9-3.5s4.4-6.1,4.4-11c0-2.7-0.4-5.3-1.3-7c-0.9-1.7-2.2-3.1-4-4.4c-1.7-0.9-3.5-1.7-5.7-2.2
	c-2.2-0.4-4.4-0.4-7-0.4H80.3v28.6C80.3,120.3,107.5,120.3,107.5,120.3z M108.8,172.3c2.7,0,5.3-0.4,7.5-0.9
	c2.2-0.4,4.4-1.3,6.1-2.7c1.7-1.4,3.1-2.7,4.4-4.8c0.9-2.2,1.7-4.8,1.7-7.9c0-6.1-1.7-10.6-5.3-13.7c-3.5-2.7-8.4-4-14.1-4h-29v33.9
	L108.8,172.3L108.8,172.3z M191.7,171.3c3.5,3.5,8.8,5.3,15.8,5.3c4.8,0,9.3-1.3,12.8-3.5c3.5-2.7,5.7-5.3,6.6-7.9h21.6
	c-3.5,10.6-8.8,18.1-15.8,22.9c-7,4.4-15.4,7-25.5,7c-7,0-13.2-1.3-18.9-3.5c-5.7-2.2-10.1-5.3-14.1-9.7c-4-4-7-8.8-8.8-14.5
	c-2.2-5.7-3.1-11.9-3.1-18.9c0-6.6,0.9-12.8,3.1-18.5s5.3-10.6,9.3-15c4-4,8.8-7.5,14.1-9.7c5.7-2.2,11.4-3.5,18.5-3.5
	c7.5,0,14.1,1.3,19.8,4.4s10.1,6.6,13.7,11.9c3.5,4.8,6.1,10.6,7.9,16.7c0.9,6.1,1.3,12.4,0.9,19.4h-63.8
	C185.5,161.2,188.1,167.7,191.7,171.3z M219.4,125c-3.1-3.1-7.9-4.8-13.7-4.8c-4,0-7,0.9-9.7,2.2s-4.4,3.1-6.1,4.8
	c-1.7,1.7-2.7,4-3.1,6.1c-0.4,2.2-0.9,4-0.9,5.7h39.6C224.7,132.5,222.5,128.1,219.4,125z M180.7,78.8H230v11.9h-49.3V78.8z
	 M256.5,5h-213c-10-0.1-18.3,8-18.4,18V237c0.1,10,8.4,18.1,18.4,18h213c10,0.1,18.4-8,18.5-18V23C274.9,13,266.5,4.9,256.5,5"/>
</svg>
