<svg width="252" height="46" viewBox="0 0 252 46" fill="none" xmlns="http://www.w3.org/2000/svg">
<path d="M18.216 3.504V0.239997H0.696V45.6H18.216V42.336H4.632V3.504H18.216ZM51.5906 36L39.5426 19.872L51.1106 4.08H46.4546L37.1426 16.752L27.6866 4.08H22.8386L34.5506 19.776L22.5986 36H27.3986L36.9506 22.992L46.6466 36H51.5906ZM73.4468 0.239997H55.8788V3.504H69.4628V42.336H55.8788V45.6H73.4468V0.239997ZM117.295 36.816C127.519 36.816 132.079 31.392 132.607 23.28H128.527C128.095 29.76 124.447 33.504 117.199 33.504C109.231 33.504 105.535 28.944 105.535 20.016C105.535 11.088 109.327 6.528 117.295 6.528C124.207 6.528 127.759 9.744 128.431 15.984H132.463C131.695 8.064 127.231 3.216 117.391 3.216C106.399 3.216 101.359 10.416 101.359 20.016C101.359 29.712 106.303 36.816 117.295 36.816ZM141.592 32.784V4.08H137.608V36H158.296V32.784H141.592ZM175.184 36.816C186.272 36.816 191.12 29.616 191.12 20.016C191.12 10.56 186.272 3.216 175.184 3.216C164.096 3.216 159.296 10.512 159.296 20.016C159.296 29.664 164.096 36.816 175.184 36.816ZM163.472 20.016C163.472 11.04 167.024 6.528 175.184 6.528C183.344 6.528 186.944 11.04 186.944 20.016C186.944 28.992 183.344 33.504 175.184 33.504C167.024 33.504 163.472 28.992 163.472 20.016ZM195.059 25.056C195.059 31.344 198.611 36.72 208.979 36.72C217.859 36.72 221.603 33.216 221.603 27.12C221.603 21.984 218.579 19.488 212.915 18.576L204.947 17.376C201.347 16.8 200.147 14.832 200.147 12.336C200.147 8.784 202.547 6.336 208.211 6.336C214.211 6.336 216.899 9.264 217.331 13.584H221.171C220.739 7.44 216.611 3.216 208.259 3.216C200.003 3.216 196.115 7.296 196.115 12.432C196.115 17.232 198.659 19.968 204.227 20.784L211.763 21.936C215.795 22.608 217.571 24.288 217.571 27.648C217.571 31.344 215.555 33.6 208.979 33.6C201.587 33.6 199.043 30 198.947 25.056H195.059ZM231.404 32.784V21.168H249.596V18H231.404V7.296H251.036V4.08H227.42V36H251.18V32.784H231.404Z" fill="#787878" fill-opacity="0.8"/>
</svg>
