<?xml version="1.0" encoding="utf-8"?>
<!-- Generator: Adobe Illustrator 26.0.1, SVG Export Plug-In . SVG Version: 6.00 Build 0)  -->
<svg version="1.1" id="Livello_1" xmlns="http://www.w3.org/2000/svg" xmlns:xlink="http://www.w3.org/1999/xlink" x="0px" y="0px"
	 viewBox="0 0 300 260" style="enable-background:new 0 0 300 260;" xml:space="preserve">
<style type="text/css">
	.st0{fill:#FF6633;}
</style>
<g>
	<path class="st0" d="M256.5,5L256.5,5l-213,0c-10-0.1-18.3,8-18.4,18V237c0.1,10,8.4,18.1,18.4,18h213c10,0.1,18.4-8,18.5-18V23
		C274.9,13,266.5,4.9,256.5,5z M246,169.8c-0.5,10.3-2.1,17.3-4.5,23.5c-2.5,6.4-5.8,11.7-11.1,17.1s-10.8,8.7-17.1,11.1
		c-6.1,2.4-13.2,4-23.5,4.5c-10.3,0.5-13.6,0.6-39.8,0.6s-29.5-0.1-39.8-0.6c-10.3-0.5-17.3-2.1-23.5-4.5
		c-6.4-2.5-11.7-5.8-17.1-11.1s-8.7-10.8-11.1-17.1c-2.4-6.1-4-13.2-4.5-23.5c-0.5-10.3-0.6-13.6-0.6-39.8s0.1-29.5,0.6-39.8
		c0.5-10.3,2.1-17.3,4.5-23.5c2.5-6.4,5.8-11.7,11.1-17.1s10.8-8.7,17.1-11.1c6.1-2.4,13.2-4,23.5-4.5c10.3-0.5,13.6-0.6,39.8-0.6
		s29.5,0.1,39.8,0.6c10.3,0.5,17.3,2.1,23.5,4.5c6.4,2.5,11.7,5.8,17.1,11.1s8.7,10.8,11.1,17.1c2.4,6.1,4,13.2,4.5,23.5
		c0.5,10.3,0.6,13.6,0.6,39.8S246.5,159.5,246,169.8z"/>
	<path class="st0" d="M225.3,73c-1.8-4.5-3.8-7.7-7.2-11.1c-3.4-3.4-6.6-5.5-11.1-7.2c-3.4-1.3-8.5-2.9-17.9-3.3
		c-10.2-0.5-13.2-0.6-39-0.6s-28.9,0.1-39,0.6c-9.4,0.4-14.5,2-17.9,3.3c-4.5,1.8-7.7,3.8-11.1,7.2c-3.4,3.4-5.5,6.6-7.2,11.1
		c-1.3,3.4-2.9,8.5-3.3,17.9c-0.5,10.2-0.6,13.2-0.6,39s0.1,28.9,0.6,39c0.4,9.4,2,14.5,3.3,17.9c1.8,4.5,3.8,7.7,7.2,11.1
		c3.4,3.4,6.6,5.5,11.1,7.2c3.4,1.3,8.5,2.9,17.9,3.3c10.2,0.5,13.2,0.6,39,0.6s28.9-0.1,39-0.6c9.4-0.4,14.5-2,17.9-3.3
		c4.5-1.8,7.7-3.8,11.1-7.2c3.4-3.4,5.5-6.6,7.2-11.1c1.3-3.4,2.9-8.5,3.3-17.9c0.5-10.2,0.6-13.2,0.6-39s-0.1-28.9-0.6-39
		C228.2,81.5,226.6,76.4,225.3,73z M150,179.6c-27.4,0-49.6-22.2-49.6-49.6s22.2-49.6,49.6-49.6s49.6,22.2,49.6,49.6
		S177.4,179.6,150,179.6z M201.6,90c-6.4,0-11.6-5.2-11.6-11.6c0-6.4,5.2-11.6,11.6-11.6c6.4,0,11.6,5.2,11.6,11.6
		C213.2,84.8,208,90,201.6,90z"/>
	<circle class="st0" cx="150" cy="130" r="32.2"/>
</g>
</svg>
