<?xml version="1.0" encoding="utf-8"?>
<!-- Generator: Adobe Illustrator 26.0.1, SVG Export Plug-In . SVG Version: 6.00 Build 0)  -->
<svg version="1.1" id="Livello_1" xmlns:serif="http://www.serif.com/"
	 xmlns="http://www.w3.org/2000/svg" xmlns:xlink="http://www.w3.org/1999/xlink" x="0px" y="0px" viewBox="0 0 300 260"
	 style="enable-background:new 0 0 300 260;" xml:space="preserve">
<style type="text/css">
	.st0{fill:#FF6633;}
</style>
<path class="st0" d="M238,218h-37v-58c0-13.8-0.2-31.6-19.3-31.6c-19.3,0-22.2,15.1-22.2,30.6v59h-37V98.7H158V115h0.5
	c7.2-12.4,20.8-19.8,35.1-19.3c37.5,0,44.5,24.7,44.5,56.8L238,218z M80.6,82.4C80.6,82.4,80.6,82.4,80.6,82.4
	c-11.8,0-21.5-9.7-21.5-21.5c0-11.8,9.7-21.5,21.5-21.5c11.8,0,21.5,9.7,21.5,21.5c0,0,0,0,0,0C102.1,72.7,92.4,82.4,80.6,82.4
	 M99.1,218H62.1V98.7h37.1V218z M256.5,5h-213c-10-0.1-18.3,8-18.4,18V237c0.1,10,8.4,18.1,18.4,18h213c10,0.1,18.4-8,18.5-18V23
	C274.9,13,266.5,4.9,256.5,5"/>
</svg>
