<svg width="1490" height="116" viewBox="0 0 1490 116" fill="none" xmlns="http://www.w3.org/2000/svg">
<path d="M0.968794 75.38C0.968794 96.995 13.1788 115.475 48.8188 115.475C79.3438 115.475 92.2138 103.43 92.2138 82.475C92.2138 64.82 81.8188 56.24 62.3488 53.105L34.9588 48.98C22.5838 47 18.4588 40.235 18.4588 31.655C18.4588 19.445 26.7088 11.03 46.1788 11.03C66.8038 11.03 76.0438 21.095 77.5288 35.945H90.7288C89.2438 14.825 75.0538 0.304995 46.3438 0.304995C17.9638 0.304995 4.59879 14.33 4.59879 31.985C4.59879 48.485 13.3438 57.89 32.4838 60.695L58.3888 64.655C72.2488 66.965 78.3538 72.74 78.3538 84.29C78.3538 96.995 71.4238 104.75 48.8188 104.75C23.4088 104.75 14.6638 92.375 14.3338 75.38H0.968794ZM190.62 3.275H98.2195V14.33H137.82V113.165H151.35V14.33H190.62V3.275ZM217.592 101.945V62.015H280.127V51.125H217.592V14.33H285.077V3.275H203.897V113H285.572V101.945H217.592ZM386.103 14.33V3.275H305.088V113H318.783V62.84H381.153V51.95H318.783V14.33H386.103ZM474.002 113H487.862L446.282 3.275H425.987L384.407 113H398.102L408.827 84.95H463.277L474.002 113ZM412.952 73.895L436.052 13.175L459.152 73.895H412.952ZM582.336 3.275V103.76C580.191 98.81 577.551 93.365 575.406 89.57L525.576 3.275H502.476V113H516.171V12.515C517.986 16.805 520.296 21.59 523.101 26.87L572.931 113H595.866V3.275H582.336ZM670.962 115.805C709.077 115.805 725.742 91.055 725.742 58.055C725.742 25.55 709.077 0.304995 670.962 0.304995C632.847 0.304995 616.347 25.385 616.347 58.055C616.347 91.22 632.847 115.805 670.962 115.805ZM630.702 58.055C630.702 27.2 642.912 11.69 670.962 11.69C699.012 11.69 711.387 27.2 711.387 58.055C711.387 88.91 699.012 104.42 670.962 104.42C642.912 104.42 630.702 88.91 630.702 58.055ZM885.634 14.33V3.275H804.619V113H818.314V62.84H880.684V51.95H818.314V14.33H885.634ZM917.733 101.945V62.015H980.268V51.125H917.733V14.33H985.218V3.275H904.038V113H985.713V101.945H917.733ZM1086.57 83.96C1086.57 67.79 1079.15 62.84 1068.75 59.87C1080.96 57.065 1090.04 46.835 1090.04 32.15C1090.04 14.495 1078.98 3.275 1056.38 3.275H1005.23V113H1018.92V63.83H1049.78C1064.96 63.83 1073.37 70.265 1073.37 85.94V96.005C1073.37 103.925 1074.2 109.37 1075.35 113H1088.72C1087.73 108.875 1086.57 103.595 1086.57 95.51V83.96ZM1054.73 53.6H1018.92V14.33H1054.89C1069.25 14.33 1075.68 20.6 1075.68 33.305C1075.68 45.845 1070.07 53.6 1054.73 53.6ZM1191.79 83.96C1191.79 67.79 1184.37 62.84 1173.97 59.87C1186.18 57.065 1195.26 46.835 1195.26 32.15C1195.26 14.495 1184.2 3.275 1161.6 3.275H1110.45V113H1124.14V63.83H1155C1170.18 63.83 1178.59 70.265 1178.59 85.94V96.005C1178.59 103.925 1179.42 109.37 1180.57 113H1193.94C1192.95 108.875 1191.79 103.595 1191.79 95.51V83.96ZM1159.95 53.6H1124.14V14.33H1160.11C1174.47 14.33 1180.9 20.6 1180.9 33.305C1180.9 45.845 1175.29 53.6 1159.95 53.6ZM1297.89 113H1311.75L1270.17 3.275H1249.88L1208.3 113H1221.99L1232.72 84.95H1287.17L1297.89 113ZM1236.84 73.895L1259.94 13.175L1283.04 73.895H1236.84ZM1407.71 83.96C1407.71 67.79 1400.29 62.84 1389.89 59.87C1402.1 57.065 1411.18 46.835 1411.18 32.15C1411.18 14.495 1400.12 3.275 1377.52 3.275H1326.37V113H1340.06V63.83H1370.92C1386.1 63.83 1394.51 70.265 1394.51 85.94V96.005C1394.51 103.925 1395.34 109.37 1396.49 113H1409.86C1408.87 108.875 1407.71 103.595 1407.71 95.51V83.96ZM1375.87 53.6H1340.06V14.33H1376.03C1390.39 14.33 1396.82 20.6 1396.82 33.305C1396.82 45.845 1391.21 53.6 1375.87 53.6ZM1489.55 14.33V3.275H1429.49V14.33H1452.75V101.945H1429.49V113H1489.55V101.945H1466.28V14.33H1489.55Z" fill="#FF6633"/>
</svg>
