<svg width="726" height="262" viewBox="0 0 726 262" fill="none" xmlns="http://www.w3.org/2000/svg">
<path d="M0.83 75.38C0.83 96.995 13.04 115.475 48.68 115.475C79.205 115.475 92.075 103.43 92.075 82.475C92.075 64.82 81.68 56.24 62.21 53.105L34.82 48.98C22.445 47 18.32 40.235 18.32 31.655C18.32 19.445 26.57 11.03 46.04 11.03C66.665 11.03 75.905 21.095 77.39 35.945H90.59C89.105 14.825 74.915 0.304995 46.205 0.304995C17.825 0.304995 4.46 14.33 4.46 31.985C4.46 48.485 13.205 57.89 32.345 60.695L58.25 64.655C72.11 66.965 78.215 72.74 78.215 84.29C78.215 96.995 71.285 104.75 48.68 104.75C23.27 104.75 14.525 92.375 14.195 75.38H0.83ZM190.481 3.275H98.0807V14.33H137.681V113.165H151.211V14.33H190.481V3.275ZM217.453 101.945V62.015H279.988V51.125H217.453V14.33H284.938V3.275H203.758V113H285.433V101.945H217.453ZM385.964 14.33V3.275H304.949V113H318.644V62.84H381.014V51.95H318.644V14.33H385.964ZM473.863 113H487.723L446.143 3.275H425.848L384.268 113H397.963L408.688 84.95H463.138L473.863 113ZM412.813 73.895L435.913 13.175L459.013 73.895H412.813ZM582.197 3.275V103.76C580.052 98.81 577.412 93.365 575.267 89.57L525.437 3.275H502.337V113H516.032V12.515C517.847 16.805 520.157 21.59 522.962 26.87L572.792 113H595.727V3.275H582.197ZM670.823 115.805C708.938 115.805 725.603 91.055 725.603 58.055C725.603 25.55 708.938 0.304995 670.823 0.304995C632.708 0.304995 616.208 25.385 616.208 58.055C616.208 91.22 632.708 115.805 670.823 115.805ZM630.563 58.055C630.563 27.2 642.773 11.69 670.823 11.69C698.873 11.69 711.248 27.2 711.248 58.055C711.248 88.91 698.873 104.42 670.823 104.42C642.773 104.42 630.563 88.91 630.563 58.055ZM102.129 163.33V152.275H21.114V262H34.809V211.84H97.1791V200.95H34.809V163.33H102.129ZM134.228 250.945V211.015H196.763V200.125H134.228V163.33H201.713V152.275H120.533V262H202.208V250.945H134.228ZM303.069 232.96C303.069 216.79 295.644 211.84 285.249 208.87C297.459 206.065 306.534 195.835 306.534 181.15C306.534 163.495 295.479 152.275 272.874 152.275H221.724V262H235.419V212.83H266.274C281.454 212.83 289.869 219.265 289.869 234.94V245.005C289.869 252.925 290.694 258.37 291.849 262H305.214C304.224 257.875 303.069 252.595 303.069 244.51V232.96ZM271.224 202.6H235.419V163.33H271.389C285.744 163.33 292.179 169.6 292.179 182.305C292.179 194.845 286.569 202.6 271.224 202.6ZM408.289 232.96C408.289 216.79 400.864 211.84 390.469 208.87C402.679 206.065 411.754 195.835 411.754 181.15C411.754 163.495 400.699 152.275 378.094 152.275H326.944V262H340.639V212.83H371.494C386.674 212.83 395.089 219.265 395.089 234.94V245.005C395.089 252.925 395.914 258.37 397.069 262H410.434C409.444 257.875 408.289 252.595 408.289 244.51V232.96ZM376.444 202.6H340.639V163.33H376.609C390.964 163.33 397.399 169.6 397.399 182.305C397.399 194.845 391.789 202.6 376.444 202.6ZM514.388 262H528.248L486.668 152.275H466.373L424.793 262H438.488L449.213 233.95H503.663L514.388 262ZM453.338 222.895L476.438 162.175L499.538 222.895H453.338ZM624.207 232.96C624.207 216.79 616.782 211.84 606.387 208.87C618.597 206.065 627.672 195.835 627.672 181.15C627.672 163.495 616.617 152.275 594.012 152.275H542.862V262H556.557V212.83H587.412C602.592 212.83 611.007 219.265 611.007 234.94V245.005C611.007 252.925 611.832 258.37 612.987 262H626.352C625.362 257.875 624.207 252.595 624.207 244.51V232.96ZM592.362 202.6H556.557V163.33H592.527C606.882 163.33 613.317 169.6 613.317 182.305C613.317 194.845 607.707 202.6 592.362 202.6ZM706.043 163.33V152.275H645.983V163.33H669.248V250.945H645.983V262H706.043V250.945H682.778V163.33H706.043Z" fill="#FF6633"/>
</svg>
