<svg width="743" height="263" viewBox="0 0 743 263" fill="none" xmlns="http://www.w3.org/2000/svg">
<path d="M8.83 83.38C8.83 104.995 21.04 123.475 56.68 123.475C87.205 123.475 100.075 111.43 100.075 90.475C100.075 72.82 89.68 64.24 70.21 61.105L42.82 56.98C30.445 55 26.32 48.235 26.32 39.655C26.32 27.445 34.57 19.03 54.04 19.03C74.665 19.03 83.905 29.095 85.39 43.945H98.59C97.105 22.825 82.915 8.305 54.205 8.305C25.825 8.305 12.46 22.33 12.46 39.985C12.46 56.485 21.205 65.89 40.345 68.695L66.25 72.655C80.11 74.965 86.215 80.74 86.215 92.29C86.215 104.995 79.285 112.75 56.68 112.75C31.27 112.75 22.525 100.375 22.195 83.38H8.83ZM198.481 11.275H106.081V22.33H145.681V121.165H159.211V22.33H198.481V11.275ZM225.453 109.945V70.015H287.988V59.125H225.453V22.33H292.938V11.275H211.758V121H293.433V109.945H225.453ZM393.964 22.33V11.275H312.949V121H326.644V70.84H389.014V59.95H326.644V22.33H393.964ZM481.863 121H495.723L454.143 11.275H433.848L392.268 121H405.963L416.688 92.95H471.138L481.863 121ZM420.813 81.895L443.913 21.175L467.013 81.895H420.813ZM590.197 11.275V111.76C588.052 106.81 585.412 101.365 583.267 97.57L533.437 11.275H510.337V121H524.032V20.515C525.847 24.805 528.157 29.59 530.962 34.87L580.792 121H603.727V11.275H590.197ZM678.823 123.805C716.938 123.805 733.603 99.055 733.603 66.055C733.603 33.55 716.938 8.305 678.823 8.305C640.708 8.305 624.208 33.385 624.208 66.055C624.208 99.22 640.708 123.805 678.823 123.805ZM638.563 66.055C638.563 35.2 650.773 19.69 678.823 19.69C706.873 19.69 719.248 35.2 719.248 66.055C719.248 96.91 706.873 112.42 678.823 112.42C650.773 112.42 638.563 96.91 638.563 66.055Z" fill="#FF6633"/>
<path d="M95.235 157.33V146.275H14.22V256H27.915V205.84H90.285V194.95H27.915V157.33H95.235ZM131.459 244.945V205.015H193.994V194.125H131.459V157.33H198.944V146.275H117.764V256H199.439V244.945H131.459ZM304.425 226.96C304.425 210.79 297 205.84 286.605 202.87C298.815 200.065 307.89 189.835 307.89 175.15C307.89 157.495 296.835 146.275 274.23 146.275H223.08V256H236.775V206.83H267.63C282.81 206.83 291.225 213.265 291.225 228.94V239.005C291.225 246.925 292.05 252.37 293.205 256H306.57C305.58 251.875 304.425 246.595 304.425 238.51V226.96ZM272.58 196.6H236.775V157.33H272.745C287.1 157.33 293.535 163.6 293.535 176.305C293.535 188.845 287.925 196.6 272.58 196.6ZM413.77 226.96C413.77 210.79 406.345 205.84 395.95 202.87C408.16 200.065 417.235 189.835 417.235 175.15C417.235 157.495 406.18 146.275 383.575 146.275H332.425V256H346.12V206.83H376.975C392.155 206.83 400.57 213.265 400.57 228.94V239.005C400.57 246.925 401.395 252.37 402.55 256H415.915C414.925 251.875 413.77 246.595 413.77 238.51V226.96ZM381.925 196.6H346.12V157.33H382.09C396.445 157.33 402.88 163.6 402.88 176.305C402.88 188.845 397.27 196.6 381.925 196.6ZM523.994 256H537.854L496.274 146.275H475.979L434.399 256H448.094L458.819 227.95H513.269L523.994 256ZM462.944 216.895L486.044 156.175L509.144 216.895H462.944ZM637.938 226.96C637.938 210.79 630.513 205.84 620.118 202.87C632.328 200.065 641.403 189.835 641.403 175.15C641.403 157.495 630.348 146.275 607.743 146.275H556.593V256H570.288V206.83H601.143C616.323 206.83 624.738 213.265 624.738 228.94V239.005C624.738 246.925 625.563 252.37 626.718 256H640.083C639.093 251.875 637.938 246.595 637.938 238.51V226.96ZM606.093 196.6H570.288V157.33H606.258C620.613 157.33 627.048 163.6 627.048 176.305C627.048 188.845 621.438 196.6 606.093 196.6ZM723.899 157.33V146.275H663.839V157.33H687.104V244.945H663.839V256H723.899V244.945H700.634V157.33H723.899Z" fill="#FF6633"/>
</svg>
