<?xml version="1.0" encoding="utf-8"?>
<!-- Generator: Adobe Illustrator 26.0.1, SVG Export Plug-In . SVG Version: 6.00 Build 0)  -->
<svg version="1.1" id="Livello_1" xmlns="http://www.w3.org/2000/svg" xmlns:xlink="http://www.w3.org/1999/xlink" x="0px" y="0px"
	 viewBox="0 0 450 260" style="enable-background:new 0 0 450 260;" xml:space="preserve">
<style type="text/css">
	.st0{fill:none;stroke:#FF6633;stroke-width:10;stroke-miterlimit:10;}
	.st1{fill:#FF6633;}
</style>
<path class="st0" d="M327.69,245.27c63.66,0,115.27-51.61,115.27-115.27S391.36,14.73,327.69,14.73H122.31
	C58.64,14.73,7.03,66.34,7.03,130S58.64,245.27,122.3,245.27L327.69,245.27L327.69,245.27z"/>
<path class="st1" d="M335.69,240.41c60.97,0,110.41-49.42,110.41-110.41S396.66,19.59,335.69,19.59
	c-60.98,0-110.41,49.44-110.41,110.41C225.28,190.98,274.71,240.41,335.69,240.41z M291.43,181.85l-13.02,13.02
	c-2.1,2.1-5.5,2.1-7.6,0c-2.1-2.1-2.1-5.5,0-7.6l13.02-13.02c2.1-2.1,5.5-2.1,7.6,0l0,0C293.53,176.36,293.53,179.76,291.43,181.85z
	 M341.07,216.37c0,2.97-2.41,5.38-5.38,5.38s-5.38-2.41-5.38-5.38v-18.41c0-2.97,2.41-5.38,5.38-5.38s5.38,2.41,5.38,5.38V216.37z
	 M400.56,194.87c-2.1,2.1-5.5,2.1-7.6,0l-13.02-13.02c-2.1-2.1-2.1-5.5,0-7.6s5.5-2.1,7.6,0l13.02,13.02
	C402.66,189.37,402.66,192.78,400.56,194.87z M422.06,124.62c2.97,0,5.38,2.41,5.38,5.38s-2.41,5.38-5.38,5.38h-18.41
	c-2.97,0-5.38-2.41-5.38-5.38s2.41-5.38,5.38-5.38H422.06z M379.94,78.15l13.02-13.02c2.1-2.1,5.5-2.1,7.6,0l0,0
	c2.1,2.1,2.1,5.5,0,7.6l-13.02,13.02c-2.1,2.1-5.5,2.1-7.6,0C377.85,83.65,377.85,80.24,379.94,78.15z M330.31,43.63
	c0-2.97,2.41-5.38,5.38-5.38s5.38,2.41,5.38,5.38v18.41c0,2.97-2.41,5.38-5.38,5.38s-5.38-2.41-5.38-5.38V43.63z M335.69,72.3
	c31.87,0,57.7,25.84,57.7,57.7s-25.84,57.7-57.7,57.7s-57.7-25.84-57.7-57.7S303.82,72.3,335.69,72.3z M270.82,65.13
	c2.1-2.1,5.5-2.1,7.6,0l13.02,13.02c2.1,2.1,2.1,5.5,0,7.6l0,0c-2.1,2.1-5.5,2.1-7.6,0l-13.02-13.02
	C268.72,70.63,268.72,67.22,270.82,65.13z M249.31,124.62h18.41c2.97,0,5.38,2.41,5.38,5.38l0,0c0,2.97-2.41,5.38-5.38,5.38h-18.41
	c-2.97,0-5.38-2.41-5.38-5.38l0,0C243.94,127.03,246.35,124.62,249.31,124.62z"/>
</svg>
