<?xml version="1.0" encoding="utf-8"?>
<!-- Generator: Adobe Illustrator 26.0.1, SVG Export Plug-In . SVG Version: 6.00 Build 0)  -->
<svg version="1.1" id="Livello_1" xmlns="http://www.w3.org/2000/svg" xmlns:xlink="http://www.w3.org/1999/xlink" x="0px" y="0px"
	 viewBox="0 0 450 260" style="enable-background:new 0 0 450 260;" xml:space="preserve">
<style type="text/css">
	.st0{fill:#FF6633;}
	.st1{fill:none;stroke:#FF6633;stroke-width:10;stroke-miterlimit:10;}
</style>
<path class="st0" d="M232.66,130c0,60.95-49.41,110.36-110.36,110.36S11.95,190.95,11.95,130S61.36,19.64,122.31,19.64
	S232.66,69.05,232.66,130z M179.23,73.08c-15.64-15.64-36.1-23.53-56.6-23.68c12.33,2.7,24.06,8.83,33.64,18.41
	c26.7,26.7,26.7,69.99,0,96.69c-26.7,26.7-69.99,26.7-96.69,0c-9.59-9.59-15.71-21.31-18.41-33.64c0.15,20.5,8.03,40.96,23.68,56.6
	c31.59,31.59,82.8,31.59,114.39,0C210.81,155.88,210.81,104.67,179.23,73.08z"/>
<path class="st1" d="M327.69,245.27c63.66,0,115.27-51.61,115.27-115.27S391.36,14.73,327.69,14.73H122.31
	C58.64,14.73,7.03,66.34,7.03,130s51.61,115.27,115.27,115.27H327.69z"/>
</svg>
