<?xml version="1.0" encoding="utf-8"?>
<!-- Generator: Adobe Illustrator 26.0.1, SVG Export Plug-In . SVG Version: 6.00 Build 0)  -->
<svg version="1.1" id="Layer_1" xmlns="http://www.w3.org/2000/svg" xmlns:xlink="http://www.w3.org/1999/xlink" x="0px" y="0px"
	 viewBox="0 0 300 260" style="enable-background:new 0 0 300 260;" xml:space="preserve">
<style type="text/css">
	.st0{fill:#FF6633;}
</style>
<path class="st0" d="M250.3,84.4c-0.9,19.9-14.8,47.2-41.8,81.9c-27.8,36.2-51.4,54.3-70.7,54.3c-11.9,0-22-11-30.3-33
	c-16.1-59.1-22.9-93.6-36.3-93.6c-1.5,0-6.9,3.2-16.1,9.6L45.6,91c23.6-20.7,46.1-43.7,60.2-45c16-1.5,25.8,9.4,29.4,32.7
	c13.1,83,18.9,95.5,42.8,57.9c8.6-13.5,13.2-23.8,13.8-30.9c2.2-21-16.4-19.6-28.9-14.2c10.1-32.9,29.3-49,57.7-48.1
	C241.6,44,251.5,57.7,250.3,84.4L250.3,84.4z M256.5,5h-213c-10-0.1-18.3,8-18.4,18V237c0.1,10,8.4,18.1,18.4,18h213
	c10,0.1,18.4-8,18.5-18V23C274.9,13,266.5,4.9,256.5,5"/>
</svg>
